<svg width="88" height="88" viewBox="0 0 88 88" fill="none" xmlns="http://www.w3.org/2000/svg">
<path d="M79.6 27.6L41.8 25.7H88V22H35.8V29.8V36C35.8 36.1 34.3 26.9 33.9 24.3H29.8V31.1V37.3C29.8 37.4 28 26.4 27.9 25C17.5 25 0 25 0 25C1.9 26.6 12.4 35.6 19.9 39.3C23.6 41.1 28.2 41.2 32.3 41.3C34.4 41.4 36.5 41.5 38.1 43.1C40.4 45.3 40.9 48.8 38.9 51.4C37 54 31.6 54.6 31.6 54.6L27 60V66.4H37.3L37.6 60.1L46.5 53.8C45.6 54.6 43.4 56.6 40.3 61.5C39.6 62.6 39 63.8 38.6 65C40.8 63.1 45.4 61.8 50.8 61.8C56.1 61.8 60.7 63.1 62.9 65C62.5 63.8 61.9 62.6 61.2 61.5C58 56.6 55.9 54.6 55 53.8L63.9 60.1L64.2 66.4H73.8V60L69.3 54.5C69.3 54.5 62.6 54.1 60.9 51.3C55.7 43.5 62.8 31.3 79.6 27.6Z" fill="#FAF4F3"/>
</svg>
